<svg width="25" height="26" viewBox="0 0 25 26" fill="none" xmlns="http://www.w3.org/2000/svg">
<g clip-path="url(#clip0_95_2)">
<path d="M11.8279 0.350431C8.72474 0.523868 5.84818 1.80981 3.66381 3.99574C0.962245 6.70043 -0.34088 10.4207 0.0794323 14.2317C0.437245 17.4817 2.08256 20.4848 4.63568 22.5473C7.25287 24.6629 10.5435 25.6239 13.8982 25.2536C17.1513 24.8957 20.1466 23.2536 22.2154 20.6957C23.7247 18.8301 24.6591 16.5973 24.9201 14.2317C24.9779 13.7176 24.9904 13.4442 24.9904 12.8332C24.9904 12.2223 24.9779 11.9489 24.9201 11.4348C24.5247 7.85043 22.5872 4.61606 19.5935 2.53949C17.7747 1.27856 15.6591 0.536368 13.3904 0.364493C13.0826 0.341056 12.1435 0.331681 11.8279 0.350431ZM13.031 3.47387C14.2482 3.54887 15.3576 3.82699 16.4529 4.33168C17.6294 4.87543 18.7497 5.72387 19.6013 6.71606C21.3857 8.79731 22.1654 11.4864 21.7732 14.2051C21.4372 16.527 20.2044 18.6707 18.3513 20.1551C17.0638 21.1864 15.5076 21.8661 13.8826 22.1051C13.4669 22.1661 12.956 22.2082 12.6294 22.2082H12.4997V12.8332V3.45824H12.6372C12.7122 3.45824 12.8888 3.46606 13.031 3.47387Z" fill="#F15C7B"/>
</g>
<defs>
<clipPath id="clip0_95_2">
<rect width="25" height="25" fill="white" transform="translate(0 0.333252)"/>
</clipPath>
</defs>
</svg>
