<svg width="120" height="129" viewBox="0 0 120 129" fill="none" xmlns="http://www.w3.org/2000/svg">
<path d="M63.8257 53.7698V59.6036C63.8257 60.7168 63.8469 61.4847 63.8892 61.9075C63.9455 62.4147 64.0582 62.7459 64.2273 62.9009C64.4105 63.0559 64.7487 63.1334 65.2419 63.1334C66.2283 63.1334 66.9469 63.0982 67.3978 63.0277C68.046 62.9009 68.5392 62.5768 68.8774 62.0554C69.1733 61.6186 69.434 61.0479 69.6595 60.3433L70.2724 60.449C70.1879 61.5481 70.0118 62.7529 69.744 64.0634C68.194 63.993 66.1156 63.9577 63.5087 63.9577C62.4378 63.9577 61.6275 63.9789 61.078 64.0211L61.0146 63.4927C61.395 63.3377 61.6557 63.1404 61.7966 62.9009C61.9516 62.6613 62.0432 62.2809 62.0714 61.7595C62.1137 61.2945 62.1348 60.5054 62.1348 59.3922V53.7698C62.1348 52.6566 62.1137 51.8675 62.0714 51.4025C62.0432 50.8811 61.9516 50.5007 61.7966 50.2611C61.6557 50.0216 61.395 49.8243 61.0146 49.6693L61.078 49.1409C61.6275 49.1832 62.2546 49.2043 62.9591 49.2043C63.6919 49.2043 64.333 49.1832 64.8826 49.1409L64.946 49.6693C64.5655 49.8243 64.2978 50.0216 64.1428 50.2611C64.0019 50.5007 63.9173 50.8811 63.8892 51.4025C63.8469 51.8675 63.8257 52.6566 63.8257 53.7698ZM70.355 59.3499C70.355 57.9972 70.813 56.8276 71.7289 55.8412C72.6307 54.8549 73.7369 54.3617 75.0474 54.3617C76.4001 54.3617 77.5204 54.8408 78.4081 55.799C79.3099 56.7431 79.7608 57.9267 79.7608 59.3499C79.7608 60.7449 79.3099 61.9216 78.4081 62.8798C77.5204 63.852 76.4353 64.3382 75.153 64.3382C73.7721 64.3382 72.6237 63.8591 71.7078 62.9009C70.8059 61.9568 70.355 60.7731 70.355 59.3499ZM74.9839 55.3339C74.1244 55.3339 73.4269 55.6721 72.8914 56.3485C72.3559 57.0249 72.0882 57.9619 72.0882 59.1597C72.0882 60.442 72.37 61.4565 72.9337 62.2034C73.5114 62.9502 74.2723 63.3236 75.2164 63.3236C76.0619 63.3236 76.7383 62.9854 77.2456 62.3091C77.7669 61.6186 78.0276 60.6745 78.0276 59.4767C78.0276 58.2508 77.7388 57.2503 77.161 56.4753C76.5974 55.7144 75.8717 55.3339 74.9839 55.3339ZM89.3047 55.1226L89.1356 55.9046H87.1488C87.6138 56.426 87.8463 57.1165 87.8463 57.976C87.8463 58.9906 87.5152 59.8431 86.8529 60.5336C86.1906 61.1959 85.3944 61.527 84.4644 61.527C83.5767 61.527 82.8228 61.2663 82.2028 60.7449C81.6673 61.1536 81.3996 61.6468 81.3996 62.2245C81.3996 62.8868 81.8787 63.2391 82.8369 63.2814L85.3944 63.3659C86.3667 63.3941 87.1136 63.6689 87.6349 64.1902C88.1704 64.7116 88.4381 65.395 88.4381 66.2405C88.4381 67.2269 87.9872 68.0653 87.0854 68.7558C86.1835 69.4603 85.0281 69.8126 83.619 69.8126C82.4776 69.8126 81.5898 69.5871 80.9557 69.1362C80.3357 68.6853 80.0257 68.0794 80.0257 67.3185C80.0257 66.3744 80.5894 65.5078 81.7166 64.7186C80.7021 64.3523 80.1948 63.6829 80.1948 62.7107C80.1948 61.7947 80.6809 60.9634 81.6532 60.2165C81.1741 59.5683 80.9346 58.8215 80.9346 57.976C80.9346 57.0037 81.2728 56.1653 81.9492 55.4608C82.6255 54.7703 83.4358 54.4251 84.3799 54.4251C84.8167 54.4251 85.2747 54.4955 85.7538 54.6364C86.261 54.7773 86.719 54.8478 87.1276 54.8478C87.8886 54.8478 88.5579 54.8196 89.1356 54.7633L89.3047 55.1226ZM87.2756 66.5998C87.2756 65.5148 86.5217 64.9723 85.014 64.9723C83.8585 64.9723 82.9989 64.9512 82.4353 64.9089C81.7448 65.5571 81.3996 66.2405 81.3996 66.9591C81.3996 67.4664 81.618 67.868 82.0548 68.1639C82.4917 68.4739 83.1258 68.6289 83.9571 68.6289C85.0422 68.6289 85.8665 68.4387 86.4301 68.0582C86.9938 67.6778 87.2756 67.1916 87.2756 66.5998ZM84.3376 55.2705C83.788 55.2705 83.3512 55.489 83.0271 55.9258C82.7171 56.3626 82.5621 57.0037 82.5621 57.8492C82.5621 58.7651 82.7242 59.4697 83.0483 59.9629C83.3864 60.442 83.8585 60.6815 84.4644 60.6815C85.6481 60.6815 86.2399 59.8149 86.2399 58.0817C86.2399 57.2081 86.0638 56.5247 85.7115 56.0315C85.3733 55.5242 84.9153 55.2705 84.3376 55.2705ZM88.8827 59.3499C88.8827 57.9972 89.3406 56.8276 90.2565 55.8412C91.1584 54.8549 92.2645 54.3617 93.575 54.3617C94.9278 54.3617 96.048 54.8408 96.9357 55.799C97.8376 56.7431 98.2885 57.9267 98.2885 59.3499C98.2885 60.7449 97.8376 61.9216 96.9357 62.8798C96.048 63.852 94.963 64.3382 93.6807 64.3382C92.2998 64.3382 91.1513 63.8591 90.2354 62.9009C89.3336 61.9568 88.8827 60.7731 88.8827 59.3499ZM93.5116 55.3339C92.652 55.3339 91.9545 55.6721 91.4191 56.3485C90.8836 57.0249 90.6159 57.9619 90.6159 59.1597C90.6159 60.442 90.8977 61.4565 91.4613 62.2034C92.0391 62.9502 92.8 63.3236 93.7441 63.3236C94.5896 63.3236 95.2659 62.9854 95.7732 62.3091C96.2946 61.6186 96.5553 60.6745 96.5553 59.4767C96.5553 58.2508 96.2664 57.2503 95.6887 56.4753C95.125 55.7144 94.3993 55.3339 93.5116 55.3339Z" fill="white"/>
<g clip-path="url(#clip0_17_25)">
<path d="M40.3792 45.9518L40.3792 117.236L58.5782 127.744L58.5782 56.4591L40.3792 45.9518Z" fill="#F15C7B"/>
<path d="M84.4413 7.26155C88.5213 4.90586 95.1367 4.90586 99.2173 7.26155L111.989 14.6354L73.6192 36.788L53.4597 25.1488L84.4413 7.26155Z" fill="#79BDEB"/>
<path d="M95.3738 86.6757C108.974 78.8228 120 59.7263 120 44.0213V33.3143C120 14.4685 106.769 6.82982 90.4481 16.2527L65.4028 30.7128V103.979L95.3738 86.6757Z" fill="#FFDE74"/>
<path d="M92.4807 73.9488C101.672 68.6421 109.123 55.7372 109.123 45.1243V38.1214C109.123 27.5086 101.672 23.2069 92.4807 28.5133L72.2275 40.2066V85.6423L92.4807 73.9488Z" fill="#F15C7B"/>
<path d="M86.7651 70.1236C94.6527 65.5699 101.047 54.4949 101.047 45.3872V39.3774C101.047 30.2696 94.6527 26.5779 86.7651 31.1318L69.3839 41.1669V80.1587L86.7651 70.1236Z" fill="#F5F5F5"/>
<path d="M34.169 15.4179C35.5291 14.6326 37.7342 14.6326 39.0943 15.4179L90.1342 44.886L54.037 65.7268L0.53418 34.8369L34.169 15.4179Z" fill="#79BDEB"/>
<path d="M72.9469 75.0174C74.3067 74.2326 76.5117 74.2326 77.872 75.0174L90.2349 82.1554L80.2925 87.8955L65.4671 79.3363L72.9469 75.0174Z" fill="#79BDEB"/>
<path d="M18.7678 55.7828L18.7678 117.235L29.5734 123.474L29.5734 62.0215L18.7678 55.7828Z" fill="#F15C7B"/>
<path d="M76.5361 86.7592C86.4062 81.0607 94.4076 67.2021 94.4076 55.805C94.4076 44.4079 86.4062 39.7883 76.5361 45.4869L58.5782 55.8548V97.1276L76.5361 86.7592Z" fill="#FFDE74"/>
<path d="M76.5139 75.5708C81.3708 72.7664 85.3081 65.9475 85.3081 60.3393C85.3081 54.7311 81.3708 52.4579 76.5139 55.262L67.6777 60.3638V80.6722L76.5139 75.5708Z" fill="#F15C7B"/>
<path d="M72.7467 69.9206C75.732 68.1974 78.1519 64.0059 78.1519 60.5589C78.1519 57.1119 75.732 55.715 72.7467 57.4383L67.6777 60.3649V72.8472L72.7467 69.9206Z" fill="black"/>
<mask id="mask0_17_25" style="mask-type:alpha" maskUnits="userSpaceOnUse" x="58" y="81" width="37" height="47">
<path d="M80.6161 115.021C88.233 110.624 94.4076 99.9286 94.4076 91.1339C94.4076 82.3386 88.233 78.7733 80.6161 83.1712L58.5782 95.8946V127.745L80.6161 115.021Z" fill="white"/>
</mask>
<g mask="url(#mask0_17_25)">
<path d="M80.6161 115.021C88.233 110.624 94.4076 99.9286 94.4076 91.1339C94.4076 82.3386 88.233 78.7733 80.6161 83.1712L58.5782 95.8946V127.745L80.6161 115.021Z" fill="#FFDE74"/>
<path d="M81.1086 114.737C88.7255 110.34 94.9001 99.6442 94.9001 90.8495C94.9001 82.0542 88.7255 78.4889 81.1086 82.8868L80.6161 83.1712C87.9611 78.9308 93.9151 82.6229 93.9151 91.4182C93.9151 100.213 87.9611 110.781 80.6161 115.021L81.1086 114.737ZM58.5782 95.8946V127.745V95.8946ZM58.5782 127.745L94.4076 107.059L58.5782 127.745ZM94.4076 75.2085L58.5782 95.8946L94.4076 75.2085Z" fill="#79BDEB"/>
<path d="M76.5139 110.831C81.3708 108.027 85.3081 101.208 85.3081 95.6C85.3081 89.9918 81.3708 87.7187 76.5139 90.5225L67.6777 95.6245V115.933L76.5139 110.831Z" fill="#F15C7B"/>
<path d="M72.5659 105.703C75.6512 103.922 78.1519 99.5896 78.1519 96.0271C78.1519 92.4652 75.6512 91.0212 72.5659 92.8025L67.6777 95.6245V108.525L72.5659 105.703Z" fill="black"/>
</g>
</g>
<path d="M40.3791 58.1469L40.3792 117.238L29.5735 123.477L29.5735 64.3856L40.3791 58.1469Z" fill="#FFDE74"/>
<path d="M0.568726 34.8596L0.568726 47.7921L47.7725 75.0452L47.7725 62.1127L0.568726 34.8596Z" fill="#F15C7B"/>
<path d="M58.5782 55.8721L58.5782 68.8121L47.7725 75.0508L47.7725 62.1108L58.5782 55.8721Z" fill="#FFDE74"/>
<defs>
<clipPath id="clip0_17_25">
<rect width="120" height="129.1" fill="white" transform="translate(0 -1)"/>
</clipPath>
</defs>
</svg>
