<svg width="122" height="130" viewBox="0 0 122 130" fill="none" xmlns="http://www.w3.org/2000/svg">
<path d="M40.3789 46.9518L40.3789 118.236L58.5779 128.744L58.5779 57.4591L40.3789 46.9518Z" fill="#F15C7B"/>
<path d="M85.2113 7.80668C89.4635 5.39777 96.3582 5.39777 100.611 7.80668L113.922 15.347L73.9323 38L52.9219 26.0979L85.2113 7.80668Z" fill="#79BDEB"/>
<path d="M72.9471 76.0174C74.3069 75.2326 76.5118 75.2326 77.8722 76.0174L90.2351 83.1554L80.2927 88.8955L65.4673 80.3363L72.9471 76.0174Z" fill="#79BDEB"/>
<path d="M76.5139 76.5708C81.3708 73.7664 85.3081 66.9475 85.3081 61.3393C85.3081 55.7311 81.3708 53.4579 76.5139 56.262L67.6777 61.3638V81.6722L76.5139 76.5708Z" fill="#F15C7B"/>
<path d="M72.7467 70.9206C75.732 69.1974 78.1519 65.0059 78.1519 61.5589C78.1519 58.1119 75.732 56.715 72.7467 58.4383L67.6777 61.3649V73.8472L72.7467 70.9206Z" fill="black"/>
<mask id="mask0_92_20" style="mask-type:alpha" maskUnits="userSpaceOnUse" x="58" y="82" width="37" height="47">
<path d="M80.616 116.021C88.2329 111.624 94.4075 100.929 94.4075 92.1339C94.4075 83.3386 88.2329 79.7733 80.616 84.1712L58.5781 96.8946V128.745L80.616 116.021Z" fill="white"/>
</mask>
<g mask="url(#mask0_92_20)">
<path d="M81.1086 115.737C88.7254 111.34 94.9 100.644 94.9 91.8495C94.9 83.0542 88.7254 79.4889 81.1086 83.8868L80.616 84.1712C87.9611 79.9308 93.915 83.6229 93.915 92.4182C93.915 101.213 87.9611 111.781 80.616 116.021L81.1086 115.737ZM58.5781 96.8946V128.745V96.8946ZM58.5781 128.745L94.4075 108.059L58.5781 128.745ZM94.4075 76.2085L58.5781 96.8946L94.4075 76.2085Z" fill="#79BDEB"/>
<path d="M76.5139 111.831C81.3708 109.027 85.3081 102.208 85.3081 96.6C85.3081 90.9918 81.3708 88.7187 76.5139 91.5225L67.6777 96.6245V116.933L76.5139 111.831Z" fill="#F15C7B"/>
<path d="M72.5659 106.703C75.6512 104.922 78.1519 100.59 78.1519 97.0271C78.1519 93.4652 75.6512 92.0212 72.5659 93.8025L67.6777 96.6245V109.525L72.5659 106.703Z" fill="black"/>
</g>
<path d="M40.3789 59.1469L40.3789 118.238L29.5732 124.477L29.5732 65.3856L40.3789 59.1469Z" fill="#FFDE74"/>
<path fill-rule="evenodd" clip-rule="evenodd" d="M0.568848 48.792V35.8596L47.7726 63.1127V76.0451L29.5733 65.5377V124.474L18.7676 118.235V59.2991L0.568848 48.792Z" fill="#F15C7B"/>
<path fill-rule="evenodd" clip-rule="evenodd" d="M121.54 44.5265C121.54 60.2315 110.514 79.328 96.9139 87.1808L66.9429 104.484V31.218L91.9882 16.7579C108.309 7.33501 121.54 14.9737 121.54 33.8195V44.5265ZM102.587 45.8924C102.587 55.0001 96.1926 66.0751 88.3051 70.6288L70.9238 80.6639V41.6721L88.3051 31.637C96.1926 27.0831 102.587 30.7748 102.587 39.8826V45.8924Z" fill="#FFDE74"/>
<path fill-rule="evenodd" clip-rule="evenodd" d="M105.895 47.8839C105.895 58.4968 98.4444 71.4017 89.2533 76.7084L69 88.4018V81.2764L83.5375 72.8832C91.4251 68.3294 97.8192 57.2545 97.8192 48.1467V42.137C97.8192 34.4104 93.2174 30.5818 87.0058 32.3786L88.5 31.5C97.6911 26.1936 105.895 30.2682 105.895 40.881V47.8839Z" fill="#F15C7B"/>
<path d="M34.169 16.4179C35.5291 15.6326 37.7342 15.6326 39.0943 16.4179L90.1342 45.886L54.037 66.7268L0.53418 35.8369L34.169 16.4179Z" fill="#79BDEB"/>
<path d="M63 54.3191L63 67.2592L47.7724 76.0508L47.7724 63.1108L63 54.3191Z" fill="#FFDE74"/>
<path d="M72.8519 75.6119C74.2794 74.796 76.594 74.796 78.0221 75.6119L91 83.0326L80.563 89L65 80.1018L72.8519 75.6119Z" fill="#79BDEB"/>
<path d="M81.1086 115.737C88.7254 111.34 94.9 100.644 94.9 91.8495C94.9 83.0542 88.7254 79.4889 81.1086 83.8868L80.616 84.1712C87.9611 79.9308 93.915 83.6229 93.915 92.4182C93.915 101.213 87.9611 111.781 80.616 116.021L81.1086 115.737ZM58.5781 96.8946V128.745V96.8946ZM58.5781 128.745L94.4075 108.059L58.5781 128.745ZM94.4075 76.2085L58.5781 96.8946L94.4075 76.2085Z" fill="#79BDEB"/>
<path d="M80.616 116.021C88.2329 111.624 94.4075 100.929 94.4075 92.1339C94.4075 83.3386 88.2329 79.7733 80.616 84.1712L58.5781 96.8946V128.745L80.616 116.021Z" fill="#FFDE74"/>
<path d="M76.536 87.7592C86.4062 82.0607 94.4075 68.2021 94.4075 56.805C94.4075 45.4079 86.4062 40.7883 76.536 46.4869L58.5781 56.8548V98.1276L76.536 87.7592Z" fill="#FFDE74"/>
<path d="M76.5139 76.5708C81.3708 73.7664 85.3081 66.9475 85.3081 61.3393C85.3081 55.7311 81.3708 53.4579 76.5139 56.262L67.6777 61.3638V81.6722L76.5139 76.5708Z" fill="#F15C7B"/>
<path d="M72.7467 70.9206C75.732 69.1974 78.1519 65.0059 78.1519 61.5589C78.1519 58.1119 75.732 56.715 72.7467 58.4383L67.6777 61.3649V73.8472L72.7467 70.9206Z" fill="black"/>
<path d="M72.5659 106.703C75.6512 104.922 78.1519 100.59 78.1519 97.0271C78.1519 93.4652 75.6512 92.0212 72.5659 93.8025L67.6777 96.6245V109.525L72.5659 106.703Z" fill="black"/>
<path d="M76.5139 111.831C81.3708 109.027 85.3081 102.208 85.3081 96.6C85.3081 90.9918 81.3708 88.7187 76.5139 91.5225L67.6777 96.6245V116.933L76.5139 111.831Z" fill="#F15C7B"/>
<path d="M72.5659 106.703C75.6512 104.922 78.1519 100.59 78.1519 97.0271C78.1519 93.4652 75.6512 92.0212 72.5659 93.8025L67.6777 96.6245V109.525L72.5659 106.703Z" fill="black"/>
</svg>
