<svg width="120" height="130" viewBox="0 0 120 130" fill="none" xmlns="http://www.w3.org/2000/svg">
<path d="M63.8257 54.7698V60.6036C63.8257 61.7168 63.8469 62.4847 63.8892 62.9075C63.9455 63.4147 64.0582 63.7459 64.2273 63.9009C64.4105 64.0559 64.7487 64.1334 65.2419 64.1334C66.2283 64.1334 66.9469 64.0982 67.3978 64.0277C68.046 63.9009 68.5392 63.5768 68.8774 63.0554C69.1733 62.6186 69.434 62.0479 69.6595 61.3433L70.2724 61.449C70.1879 62.5481 70.0118 63.7529 69.744 65.0634C68.194 64.993 66.1156 64.9577 63.5087 64.9577C62.4378 64.9577 61.6275 64.9789 61.078 65.0211L61.0146 64.4927C61.395 64.3377 61.6557 64.1404 61.7966 63.9009C61.9516 63.6613 62.0432 63.2809 62.0714 62.7595C62.1137 62.2945 62.1348 61.5054 62.1348 60.3922V54.7698C62.1348 53.6566 62.1137 52.8675 62.0714 52.4025C62.0432 51.8811 61.9516 51.5007 61.7966 51.2611C61.6557 51.0216 61.395 50.8243 61.0146 50.6693L61.078 50.1409C61.6275 50.1832 62.2546 50.2043 62.9591 50.2043C63.6919 50.2043 64.333 50.1832 64.8826 50.1409L64.946 50.6693C64.5655 50.8243 64.2978 51.0216 64.1428 51.2611C64.0019 51.5007 63.9173 51.8811 63.8892 52.4025C63.8469 52.8675 63.8257 53.6566 63.8257 54.7698ZM70.355 60.3499C70.355 58.9972 70.813 57.8276 71.7289 56.8412C72.6307 55.8549 73.7369 55.3617 75.0474 55.3617C76.4001 55.3617 77.5204 55.8408 78.4081 56.799C79.3099 57.7431 79.7608 58.9267 79.7608 60.3499C79.7608 61.7449 79.3099 62.9216 78.4081 63.8798C77.5204 64.852 76.4353 65.3382 75.153 65.3382C73.7721 65.3382 72.6237 64.8591 71.7078 63.9009C70.8059 62.9568 70.355 61.7731 70.355 60.3499ZM74.9839 56.3339C74.1244 56.3339 73.4269 56.6721 72.8914 57.3485C72.3559 58.0249 72.0882 58.9619 72.0882 60.1597C72.0882 61.442 72.37 62.4565 72.9337 63.2034C73.5114 63.9502 74.2723 64.3236 75.2164 64.3236C76.0619 64.3236 76.7383 63.9854 77.2456 63.3091C77.7669 62.6186 78.0276 61.6745 78.0276 60.4767C78.0276 59.2508 77.7388 58.2503 77.161 57.4753C76.5974 56.7144 75.8717 56.3339 74.9839 56.3339ZM89.3047 56.1226L89.1356 56.9046H87.1488C87.6138 57.426 87.8463 58.1165 87.8463 58.976C87.8463 59.9906 87.5152 60.8431 86.8529 61.5336C86.1906 62.1959 85.3944 62.527 84.4644 62.527C83.5767 62.527 82.8228 62.2663 82.2028 61.7449C81.6673 62.1536 81.3996 62.6468 81.3996 63.2245C81.3996 63.8868 81.8787 64.2391 82.8369 64.2814L85.3944 64.3659C86.3667 64.3941 87.1136 64.6689 87.6349 65.1902C88.1704 65.7116 88.4381 66.395 88.4381 67.2405C88.4381 68.2269 87.9872 69.0653 87.0854 69.7558C86.1835 70.4603 85.0281 70.8126 83.619 70.8126C82.4776 70.8126 81.5898 70.5871 80.9557 70.1362C80.3357 69.6853 80.0257 69.0794 80.0257 68.3185C80.0257 67.3744 80.5894 66.5078 81.7166 65.7186C80.7021 65.3523 80.1948 64.6829 80.1948 63.7107C80.1948 62.7947 80.6809 61.9634 81.6532 61.2165C81.1741 60.5683 80.9346 59.8215 80.9346 58.976C80.9346 58.0037 81.2728 57.1653 81.9492 56.4608C82.6255 55.7703 83.4358 55.4251 84.3799 55.4251C84.8167 55.4251 85.2747 55.4955 85.7538 55.6364C86.261 55.7773 86.719 55.8478 87.1276 55.8478C87.8886 55.8478 88.5579 55.8196 89.1356 55.7633L89.3047 56.1226ZM87.2756 67.5998C87.2756 66.5148 86.5217 65.9723 85.014 65.9723C83.8585 65.9723 82.9989 65.9512 82.4353 65.9089C81.7448 66.5571 81.3996 67.2405 81.3996 67.9591C81.3996 68.4664 81.618 68.868 82.0548 69.1639C82.4917 69.4739 83.1258 69.6289 83.9571 69.6289C85.0422 69.6289 85.8665 69.4387 86.4301 69.0582C86.9938 68.6778 87.2756 68.1916 87.2756 67.5998ZM84.3376 56.2705C83.788 56.2705 83.3512 56.489 83.0271 56.9258C82.7171 57.3626 82.5621 58.0037 82.5621 58.8492C82.5621 59.7651 82.7242 60.4697 83.0483 60.9629C83.3864 61.442 83.8585 61.6815 84.4644 61.6815C85.6481 61.6815 86.2399 60.8149 86.2399 59.0817C86.2399 58.2081 86.0638 57.5247 85.7115 57.0315C85.3733 56.5242 84.9153 56.2705 84.3376 56.2705ZM88.8827 60.3499C88.8827 58.9972 89.3406 57.8276 90.2565 56.8412C91.1584 55.8549 92.2645 55.3617 93.575 55.3617C94.9278 55.3617 96.048 55.8408 96.9357 56.799C97.8376 57.7431 98.2885 58.9267 98.2885 60.3499C98.2885 61.7449 97.8376 62.9216 96.9357 63.8798C96.048 64.852 94.963 65.3382 93.6807 65.3382C92.2998 65.3382 91.1513 64.8591 90.2354 63.9009C89.3336 62.9568 88.8827 61.7731 88.8827 60.3499ZM93.5116 56.3339C92.652 56.3339 91.9545 56.6721 91.4191 57.3485C90.8836 58.0249 90.6159 58.9619 90.6159 60.1597C90.6159 61.442 90.8977 62.4565 91.4613 63.2034C92.0391 63.9502 92.8 64.3236 93.7441 64.3236C94.5896 64.3236 95.2659 63.9854 95.7732 63.3091C96.2946 62.6186 96.5553 61.6745 96.5553 60.4767C96.5553 59.2508 96.2664 58.2503 95.6887 57.4753C95.125 56.7144 94.3993 56.3339 93.5116 56.3339Z" fill="white"/>
<g clip-path="url(#clip0_89_2)">
<path d="M40.3789 46.9518L40.3789 118.236L58.5779 128.744L58.5779 57.459L40.3789 46.9518Z" fill="#F15C7B"/>
<path d="M84.4416 8.26165C88.5216 5.90595 95.1369 5.90595 99.2175 8.26165L111.989 15.6354L73.6194 37.7881L53.46 26.1489L84.4416 8.26165Z" fill="#79BDEB"/>
<path d="M95.3738 87.6756C108.974 79.8227 120 60.7262 120 45.0213V34.3142C120 15.4685 106.769 7.82976 90.4481 17.2526L65.4028 31.7127V104.979L95.3738 87.6756Z" fill="#FFDE74"/>
<path d="M92.4808 74.9488C101.672 69.6421 109.123 56.7372 109.123 46.1244V39.1214C109.123 28.5087 101.672 24.2069 92.4808 29.5134L72.2275 41.2067V86.6423L92.4808 74.9488Z" fill="#F15C7B"/>
<path d="M86.765 71.1236C94.6526 66.5699 101.047 55.4949 101.047 46.3872V40.3774C101.047 31.2696 94.6526 27.5779 86.765 32.1318L69.3838 42.1669V81.1587L86.765 71.1236Z" fill="black"/>
<path d="M34.169 16.4179C35.5291 15.6327 37.7342 15.6327 39.0943 16.4179L90.1342 45.886L54.037 66.7269L0.53418 35.837L34.169 16.4179Z" fill="#79BDEB"/>
<path d="M72.9471 76.0175C74.3069 75.2326 76.5118 75.2326 77.8722 76.0175L90.2351 83.1555L80.2927 88.8956L65.4673 80.3363L72.9471 76.0175Z" fill="#79BDEB"/>
<path d="M18.7676 56.7828L18.7676 118.235L29.5733 124.474L29.5733 63.0214L18.7676 56.7828Z" fill="#F15C7B"/>
<path d="M76.536 87.7592C86.4062 82.0607 94.4075 68.2021 94.4075 56.805C94.4075 45.4079 86.4062 40.7883 76.536 46.4869L58.5781 56.8548V98.1276L76.536 87.7592Z" fill="#FFDE74"/>
<path d="M76.5139 76.5709C81.3708 73.7665 85.3081 66.9475 85.3081 61.3394C85.3081 55.7312 81.3708 53.458 76.5139 56.2621L67.6777 61.3639V81.6723L76.5139 76.5709Z" fill="#F15C7B"/>
<path d="M72.7467 70.9205C75.732 69.1973 78.1519 65.0058 78.1519 61.5588C78.1519 58.1118 75.732 56.7149 72.7467 58.4382L67.6777 61.3649V73.8472L72.7467 70.9205Z" fill="black"/>
<mask id="mask0_89_2" style="mask-type:alpha" maskUnits="userSpaceOnUse" x="58" y="82" width="37" height="47">
<path d="M80.616 116.021C88.2329 111.624 94.4075 100.929 94.4075 92.1339C94.4075 83.3386 88.2329 79.7733 80.616 84.1712L58.5781 96.8946V128.745L80.616 116.021Z" fill="white"/>
</mask>
<g mask="url(#mask0_89_2)">
<path d="M80.616 116.021C88.2329 111.624 94.4075 100.929 94.4075 92.1339C94.4075 83.3386 88.2329 79.7733 80.616 84.1712L58.5781 96.8946V128.745L80.616 116.021Z" fill="#FFDE74"/>
<path d="M81.1086 115.737C88.7254 111.339 94.9 100.644 94.9 91.8494C94.9 83.0542 88.7254 79.4889 81.1086 83.8868L80.616 84.1712C87.9611 79.9308 93.915 83.6229 93.915 92.4182C93.915 101.213 87.9611 111.781 80.616 116.021L81.1086 115.737ZM58.5781 96.8946V128.745V96.8946ZM58.5781 128.745L94.4075 108.059L58.5781 128.745ZM94.4075 76.2085L58.5781 96.8946L94.4075 76.2085Z" fill="#79BDEB"/>
<path d="M76.5139 111.832C81.3708 109.027 85.3081 102.208 85.3081 96.6001C85.3081 90.9919 81.3708 88.7187 76.5139 91.5225L67.6777 96.6245V116.933L76.5139 111.832Z" fill="#F15C7B"/>
<path d="M72.5659 106.703C75.6512 104.922 78.1519 100.59 78.1519 97.0272C78.1519 93.4653 75.6512 92.0213 72.5659 93.8025L67.6777 96.6245V109.525L72.5659 106.703Z" fill="black"/>
</g>
</g>
<path d="M40.3789 59.1469L40.3789 118.238L29.5732 124.477L29.5732 65.3855L40.3789 59.1469Z" fill="#FFDE74"/>
<path d="M0.568848 35.8596L0.568848 48.792L47.7726 76.0451L47.7726 63.1127L0.568848 35.8596Z" fill="#F15C7B"/>
<path d="M58.5781 56.8721L58.5781 69.8121L47.7724 76.0508L47.7724 63.1108L58.5781 56.8721Z" fill="#FFDE74"/>
<defs>
<clipPath id="clip0_89_2">
<rect width="120" height="129.1" fill="white"/>
</clipPath>
</defs>
</svg>
